<?xml version="1.0" encoding="UTF-8" standalone="no"?>
<svg
   width="282.31195"
   height="171.88725"
   viewBox="0 0 282.31196 171.88726"
   version="1.2"
   id="svg17"
   sodipodi:docname="vorzeichen.svg"
   inkscape:version="1.3.2 (091e20e, 2023-11-25, custom)"
   xmlns:inkscape="http://www.inkscape.org/namespaces/inkscape"
   xmlns:sodipodi="http://sodipodi.sourceforge.net/DTD/sodipodi-0.dtd"
   xmlns="http://www.w3.org/2000/svg"
   xmlns:svg="http://www.w3.org/2000/svg">
  <defs
     id="defs17" />
  <sodipodi:namedview
     id="namedview17"
     pagecolor="#505050"
     bordercolor="#eeeeee"
     borderopacity="1"
     inkscape:showpageshadow="0"
     inkscape:pageopacity="0"
     inkscape:pagecheckerboard="0"
     inkscape:deskcolor="#d1d1d1"
     inkscape:zoom="1.2332867"
     inkscape:cx="-265.55058"
     inkscape:cy="276.09152"
     inkscape:window-width="3840"
     inkscape:window-height="2066"
     inkscape:window-x="-11"
     inkscape:window-y="-11"
     inkscape:window-maximized="1"
     inkscape:current-layer="svg17" />
  <title
     id="title1">Unbenannte Partitur</title>
  <desc
     id="desc1">Generated by MuseScore 4.2.0</desc>
  <path
     class="Accidental"
     d="m 2.96292,163.73625 c 0.7311,1.00058 1.46222,1.23134 2.19331,1.23134 0.76959,0 1.50071,-0.50017 1.50071,-0.50017 7.38803,-4.19419 13.27535,-10.81264 19.43217,-15.00707 21.9331,-15.27623 29.55213,-30.28317 29.55213,-41.63459 0,-14.04506 -10.81288,-22.89519 -22.1641,-23.62636 -4.15576,0 -10.0817,1.96251 -13.54485,4.19419 -1.46221,1.23134 -4.15576,3.42484 -5.3871,3.42484 -0.50022,0 -0.76959,0 -1.23134,-0.231 -1.73156,-0.73116 -2.73202,-2.46267 -2.73202,-4.19418 0.26934,-5.42553 1.73156,-64.52978 1.73156,-69.45514 0,-2.69367 -2.2318,-4.19443 -4.69448,-4.19443 -3.42465,0 -7.38803,2.46268 -7.61891,6.88786 0,0 1.00046,140.64203 2.96292,143.10471 m 8.61937,-21.93322 c 0,0 -0.73112,-14.77607 -0.73112,-24.62678 0,-3.92489 0.23088,-6.88781 0.46175,-7.84978 1.73159,-4.92536 11.5823,-12.08251 17.23887,-12.08251 7.15703,0 10.11988,8.11913 10.11988,14.27582 0,13.31387 -11.35122,26.58923 -21.93315,33.24617 -0.96199,0.50022 -1.73158,0.73109 -2.46267,0.73109 -2.19334,0 -2.69356,-2.46267 -2.69356,-3.69401"
     id="path7"
     style="stroke-width:2.46268" />
  <path
     class="Accidental"
     d="m 148.52544,43.2562 c -0.46175,0 -0.73117,0.231 -0.96217,0.231 0,0 -15.77645,5.65652 -22.16402,5.65652 -1.50071,0 -2.46268,-0.231 -2.46268,-1.23134 V 6.77779 c 0,-1.73151 -1.5007,-2.96285 -2.96292,-2.96285 h -3.19377 c -1.73158,0 -2.96292,1.23134 -2.96292,2.96285 v 126.82813 c 0,1.50051 0.73111,2.23168 2.2318,2.23168 l 0.46175,-0.23075 c 0.26937,0 0.76959,0 1.00046,-0.26942 3.46314,-1.46234 17.23875,-7.38803 24.39603,-7.38803 2.46267,0 4.15576,0.73117 4.15576,2.73209 v 36.67075 c 0,1.73151 1.23134,2.96284 2.96285,2.96284 h 3.19385 c 1.50051,0 2.96284,-1.23133 2.96284,-2.96284 V 43.71795 c 0,-1.23134 -0.96192,-1.96226 -1.9625,-1.96226 -0.23076,0 -0.73117,0 -1.00034,0.26917 l -3.69402,1.23134 m -25.58887,34.93936 c 0,-3.42467 15.00694,-9.85071 20.93269,-9.85071 1.46233,0 2.1935,0.26934 2.1935,1.23134 v 25.39636 c 0,4.42513 -14.0066,10.08158 -20.16329,10.08158 -1.73156,0 -2.9629,-0.50022 -2.9629,-1.46221 V 78.19556"
     id="path8"
     style="stroke-width:2.46268" />
  <path
     class="Accidental"
     d="m 279.34887,57.14175 c 1.73175,-0.73117 2.96309,-2.73209 2.96309,-4.19418 V 35.47783 c 0,-1.23134 -0.76959,-2.00093 -1.73175,-2.00093 -0.50017,0 -0.73093,0 -1.23134,0.26942 0,0 -4.92536,1.96251 -6.1567,2.19326 -1.7315,0 -3.46301,-1.23134 -3.46301,-3.1936 V 2.69343 C 269.72916,1.23134 268.26682,0 266.30456,0 c -2.46268,0 -3.96343,1.23134 -3.96343,2.69343 v 32.01481 c -0.231,2.46268 -0.96193,5.69494 -3.19385,7.15728 -2.96285,1.73151 -11.3128,5.15611 -15.50716,6.15669 -2.2318,0 -2.96292,-2.96284 -2.96292,-4.92535 V 13.54473 c 0,-1.50076 -1.73156,-2.73209 -3.46314,-2.73209 -2.46268,0 -3.92489,1.23133 -3.92489,2.73209 v 33.24614 c 0,3.46302 -1.46222,5.9257 -2.9629,6.65687 -1.46221,0.73117 -6.38757,2.69367 -6.38757,2.69367 -1.73158,0.50017 -2.96292,2.46268 -2.96292,3.96319 v 17.46974 c 0,1.46222 0.73111,2.2318 2.2318,2.2318 l 0.46175,-0.26937 c 0.26937,0 3.96339,-1.46221 5.92582,-2.46267 l 0.23088,-0.23088 c 2.00092,0 3.46314,2.46268 3.46314,4.42514 v 24.39589 c 0,2.69356 -1.23134,4.92536 -2.69356,5.65641 -1.50068,0.50041 -6.65691,2.69367 -6.65691,2.69367 -1.73158,0.50017 -2.96292,2.46268 -2.96292,3.96343 v 17.4695 c 0,1.46234 0.73111,2.23192 2.2318,2.23192 l 0.46175,-0.26941 c 0.26937,0 3.69402,-1.46234 5.92582,-2.19326 0.23088,-0.26942 0.50024,-0.26942 0.73112,-0.26942 1.73156,0 2.9629,2.73209 2.9629,3.96343 v 30.28305 c 0,1.46234 1.46221,2.69368 3.19379,2.69368 2.46268,0 4.19424,-1.23134 4.19424,-2.69368 v -34.24648 c 0,-3.19385 1.23134,-4.92536 2.46268,-5.42552 l 15.00706,-6.1567 c 0,0 0.26917,0 0.26917,0 l 0.50042,-0.231 c 2.19326,0 3.4246,2.96285 3.4246,4.42519 v 30.78346 c 0,1.50076 1.50075,2.7321 3.19384,2.7321 2.73185,0 4.19419,-1.23134 4.19419,-2.7321 v -34.97765 c 0,-1.96251 1.00034,-4.92535 2.73209,-5.65652 1.69309,-0.73117 6.88762,-2.69368 6.88762,-2.69368 1.73175,-0.73092 2.96309,-2.73185 2.96309,-4.19418 V 93.35087 c 0,-1.23134 -0.76959,-2.00093 -1.73175,-2.00093 -0.50017,0 -0.73093,0 -1.23134,0.26937 l -6.42587,2.46268 c -1.46233,0 -3.19384,-1.50071 -3.19384,-4.42514 V 66.72317 c 0,-1.69309 1.23134,-6.38757 3.19384,-7.11874 l 6.42587,-2.46268 m -17.00774,40.13401 c -1.46234,4.92535 -13.04456,9.85071 -18.70101,9.85071 -1.50071,0 -2.73205,-0.50022 -2.96292,-1.23134 -0.50022,-1.00046 -0.7311,-6.38757 -0.7311,-12.31339 0,-7.6189 0.23088,-16.23827 0.7311,-18.2392 0.50024,-4.15577 11.81322,-9.35049 17.96991,-9.35049 1.73151,0 3.19385,0.50024 3.69402,1.50071 0.50017,1.23133 1.00033,7.38803 1.00033,14.00647 0,6.65693 -0.50016,13.54473 -1.00033,15.77653"
     id="path9"
     style="stroke-width:2.46268" />
</svg>
